<svg width="937" height="671" viewBox="0 0 937 671" fill="none" xmlns="http://www.w3.org/2000/svg">
<mask id="mask0_2_84" style="mask-type:luminance" maskUnits="userSpaceOnUse" x="99" y="202" width="738" height="266">
<path d="M836.9 202.4H99.4V467.9H836.9V202.4Z" fill="white"/>
</mask>
<g mask="url(#mask0_2_84)">
<path d="M244.2 280.2C247.8 280.6 251.4 281.2 254.9 282.2L258.4 210.3C255.9 209.5 253.3 209 250.7 208.8C247.5 208.5 244.3 208.3 241 208.3C225.8 208.3 212.4 212.3 200.8 220.3C189.3 228.2 180.1 238.8 174 251.3H173V215.5H104V462.3H176V335.6C176.2 329.7 177.2 323.9 179 318.3C181 311.6 184.3 305.4 188.7 300C193.6 294 199.7 289.2 206.6 285.6C214 281.6 223.2 279.7 234.1 279.7C237.3 279.7 240.7 279.9 244.2 280.2Z" fill="white"/>
</g>
<mask id="mask1_2_84" style="mask-type:luminance" maskUnits="userSpaceOnUse" x="99" y="202" width="738" height="266">
<path d="M836.9 202.4H99.4V467.9H836.9V202.4Z" fill="white"/>
</mask>
<g mask="url(#mask1_2_84)">
<path d="M823.3 282.1C817.2 265.7 808.8 251.8 798 240.4C787.1 228.9 773.9 220 759.2 214.1C744.1 208 727.6 205 709.6 205C691.8 204.8 674.2 208 657.6 214.3L656.3 214.8L588.2 391.2C594.8 406.6 604.7 420.3 617.1 431.5C629.6 442.6 644.3 451.1 660.1 456.5C676.8 462.3 694.4 465.2 712.1 465.1C737 465.1 758.8 460.6 777.6 451.6C795.9 443 811.6 429.7 823 413.1L767 377.7C761.3 385.4 753.9 391.7 745.4 396.1C736.6 400.9 725.8 403.2 713 403.2C698.9 403.2 685.3 398.6 674 390.2C668.7 386.2 664.2 381.3 660.7 375.7C657.2 370 655.1 363.7 654.6 357H831.9C832.2 354.1 832.4 351.1 832.4 348.2V337.2C832.3 316.7 829.3 298.2 823.3 282.1ZM654.6 307.1C654.9 300.8 656.6 294.7 659.5 289.2C662.4 283.5 666.4 278.4 671.3 274.2C676.4 269.8 682.2 266.4 688.5 264.1C695.4 261.6 702.7 260.3 710.1 260.4C726.1 260.4 738.1 265 746.2 274.1C754.3 283.3 758.3 294.2 758.2 307H654.6V307.1Z" fill="white"/>
</g>
<mask id="mask2_2_84" style="mask-type:luminance" maskUnits="userSpaceOnUse" x="99" y="202" width="738" height="266">
<path d="M836.9 202.4H99.4V467.9H836.9V202.4Z" fill="white"/>
</mask>
<g mask="url(#mask2_2_84)">
<path d="M329 209.7L327.9 212.7L231.6 462.3H299L357.2 283.2H358.6L417.1 462.3H485.4L389.7 209.7H329Z" fill="white"/>
</g>
<mask id="mask3_2_84" style="mask-type:luminance" maskUnits="userSpaceOnUse" x="99" y="202" width="738" height="266">
<path d="M836.9 202.4H99.4V467.9H836.9V202.4Z" fill="white"/>
</mask>
<g mask="url(#mask3_2_84)">
<path d="M327.8 209.7L230.2 462.3H231.4L327.9 212.7L329 209.7H327.8Z" fill="white"/>
</g>
<mask id="mask4_2_84" style="mask-type:luminance" maskUnits="userSpaceOnUse" x="99" y="202" width="738" height="266">
<path d="M836.9 202.4H99.4V467.9H836.9V202.4Z" fill="white"/>
</mask>
<g mask="url(#mask4_2_84)">
<path d="M329 209.7L327.9 212.7L329 209.7Z" fill="white"/>
</g>
<mask id="mask5_2_84" style="mask-type:luminance" maskUnits="userSpaceOnUse" x="99" y="202" width="738" height="266">
<path d="M836.9 202.4H99.4V467.9H836.9V202.4Z" fill="white"/>
</mask>
<g mask="url(#mask5_2_84)">
<path d="M329 209.7L327.9 212.7L329 209.7Z" fill="white"/>
</g>
<mask id="mask6_2_84" style="mask-type:luminance" maskUnits="userSpaceOnUse" x="99" y="202" width="738" height="266">
<path d="M836.9 202.4H99.4V467.9H836.9V202.4Z" fill="white"/>
</mask>
<g mask="url(#mask6_2_84)">
<path d="M391 209.7H390L485.6 462.3H486.6L391 209.7Z" fill="white"/>
</g>
<mask id="mask7_2_84" style="mask-type:luminance" maskUnits="userSpaceOnUse" x="99" y="202" width="738" height="266">
<path d="M836.9 202.4H99.4V467.9H836.9V202.4Z" fill="white"/>
</mask>
<g mask="url(#mask7_2_84)">
<path d="M389.7 209.7L485.4 462.3H485.6L390 209.7H389.7Z" fill="white"/>
</g>
<mask id="mask8_2_84" style="mask-type:luminance" maskUnits="userSpaceOnUse" x="99" y="202" width="738" height="266">
<path d="M836.9 202.4H99.4V467.9H836.9V202.4Z" fill="white"/>
</mask>
<g mask="url(#mask8_2_84)">
<path d="M389.7 209.7L485.4 462.3H485.6L390 209.7H389.7Z" fill="white"/>
</g>
<mask id="mask9_2_84" style="mask-type:luminance" maskUnits="userSpaceOnUse" x="99" y="202" width="738" height="266">
<path d="M836.9 202.4H99.4V467.9H836.9V202.4Z" fill="white"/>
</mask>
<g mask="url(#mask9_2_84)">
<path d="M524.9 391.3L557 298.1L587.4 209.7H465L475.3 241L524.9 391.3Z" fill="white"/>
</g>
</svg>
