<?xml version="1.0" encoding="utf-8"?>
<!-- Generator: Adobe Illustrator 26.0.3, SVG Export Plug-In . SVG Version: 6.00 Build 0)  -->
<svg version="1.0" id="Layer_1" xmlns="http://www.w3.org/2000/svg" xmlns:xlink="http://www.w3.org/1999/xlink" x="0px" y="0px"
	 viewBox="0 0 936.4 670.2" style="enable-background:new 0 0 936.4 670.2;" xml:space="preserve">
<style type="text/css">
	.st0{clip-path:url(#SVGID_00000026869355960580841720000005408410714738855336_);}
	.st1{clip-path:url(#SVGID_00000034064251160162588110000005367547372139910582_);}
	.st2{clip-path:url(#SVGID_00000155143111158959736310000008184932723683340168_);}
	.st3{clip-path:url(#SVGID_00000123422062730847048600000002796133824610911915_);}
	.st4{clip-path:url(#SVGID_00000004521666876397206280000000685435385296838590_);}
	.st5{clip-path:url(#SVGID_00000075126563620340971390000012054290804038186140_);}
	.st6{clip-path:url(#SVGID_00000015355236512074681820000009472643382918878104_);}
	.st7{clip-path:url(#SVGID_00000121239370106415848480000011229732735769787071_);}
	.st8{clip-path:url(#SVGID_00000085941501683703698820000014622461892413732506_);}
	.st9{clip-path:url(#SVGID_00000003809218618399429930000017091480619015415967_);}
</style>
<g>
	<defs>
		<rect id="SVGID_1_" x="99.4" y="202.4" width="737.5" height="265.5"/>
	</defs>
	<clipPath id="SVGID_00000166662855643070080750000010211610484311641758_">
		<use xlink:href="#SVGID_1_"  style="overflow:visible;"/>
	</clipPath>
	<g style="clip-path:url(#SVGID_00000166662855643070080750000010211610484311641758_);">
		<path d="M244.2,280.2c3.6,0.4,7.2,1,10.7,2l3.5-71.9c-2.5-0.8-5.1-1.3-7.7-1.5c-3.2-0.3-6.4-0.5-9.7-0.5c-15.2,0-28.6,4-40.2,12
			c-11.5,7.9-20.7,18.5-26.8,31h-1v-35.8h-69v246.8h72V335.6c0.2-5.9,1.2-11.7,3-17.3c2-6.7,5.3-12.9,9.7-18.3
			c4.9-6,11-10.8,17.9-14.4c7.4-4,16.6-5.9,27.5-5.9C237.3,279.7,240.7,279.9,244.2,280.2"/>
	</g>
</g>
<g>
	<defs>
		<rect id="SVGID_00000144329910092891573090000003498833980980280456_" x="99.4" y="202.4" width="737.5" height="265.5"/>
	</defs>
	<clipPath id="SVGID_00000136391808253904393060000017238669687491971261_">
		<use xlink:href="#SVGID_00000144329910092891573090000003498833980980280456_"  style="overflow:visible;"/>
	</clipPath>
	<g style="clip-path:url(#SVGID_00000136391808253904393060000017238669687491971261_);">
		<path d="M823.3,282.1c-6.1-16.4-14.5-30.3-25.3-41.7c-10.9-11.5-24.1-20.4-38.8-26.3c-15.1-6.1-31.6-9.1-49.6-9.1
			c-17.8-0.2-35.4,3-52,9.3l-1.3,0.5l-68.1,176.4c6.6,15.4,16.5,29.1,28.9,40.3c12.5,11.1,27.2,19.6,43,25c16.7,5.8,34.3,8.7,52,8.6
			c24.9,0,46.7-4.5,65.5-13.5c18.3-8.6,34-21.9,45.4-38.5l-56-35.4c-5.7,7.7-13.1,14-21.6,18.4c-8.8,4.8-19.6,7.1-32.4,7.1
			c-14.1,0-27.7-4.6-39-13c-5.3-4-9.8-8.9-13.3-14.5c-3.5-5.7-5.6-12-6.1-18.7h177.3c0.3-2.9,0.5-5.9,0.5-8.8v-11
			C832.3,316.7,829.3,298.2,823.3,282.1 M654.6,307.1c0.3-6.3,2-12.4,4.9-17.9c2.9-5.7,6.9-10.8,11.8-15c5.1-4.4,10.9-7.8,17.2-10.1
			c6.9-2.5,14.2-3.8,21.6-3.7c16,0,28,4.6,36.1,13.7c8.1,9.2,12.1,20.1,12,32.9H654.6z"/>
	</g>
</g>
<g>
	<defs>
		<rect id="SVGID_00000152955746550943374760000003990267198374298283_" x="99.4" y="202.4" width="737.5" height="265.5"/>
	</defs>
	<clipPath id="SVGID_00000067917846023393167830000000597823713732422582_">
		<use xlink:href="#SVGID_00000152955746550943374760000003990267198374298283_"  style="overflow:visible;"/>
	</clipPath>
	<g style="clip-path:url(#SVGID_00000067917846023393167830000000597823713732422582_);">
		<polygon points="329,209.7 329,209.7 329,209.7 327.9,212.7 231.6,462.3 299,462.3 357.2,283.2 358.6,283.2 417.1,462.3 
			485.4,462.3 389.7,209.7 		"/>
	</g>
</g>
<g>
	<defs>
		<rect id="SVGID_00000152257616325771550810000017892606819141265076_" x="99.4" y="202.4" width="737.5" height="265.5"/>
	</defs>
	<clipPath id="SVGID_00000051380444432639583700000007296914157564196524_">
		<use xlink:href="#SVGID_00000152257616325771550810000017892606819141265076_"  style="overflow:visible;"/>
	</clipPath>
	<g style="clip-path:url(#SVGID_00000051380444432639583700000007296914157564196524_);">
		<polygon points="327.8,209.7 230.2,462.3 231.4,462.3 327.9,212.7 329,209.7 		"/>
	</g>
</g>
<g>
	<defs>
		<rect id="SVGID_00000124880170355818476490000014106955524542725548_" x="99.4" y="202.4" width="737.5" height="265.5"/>
	</defs>
	<clipPath id="SVGID_00000096745332432508681670000005403116509072438717_">
		<use xlink:href="#SVGID_00000124880170355818476490000014106955524542725548_"  style="overflow:visible;"/>
	</clipPath>
	<g style="clip-path:url(#SVGID_00000096745332432508681670000005403116509072438717_);">
		<polygon points="329,209.7 327.9,212.7 329,209.7 		"/>
	</g>
</g>
<g>
	<defs>
		<rect id="SVGID_00000098929590960721082130000006413111460616555960_" x="99.4" y="202.4" width="737.5" height="265.5"/>
	</defs>
	<clipPath id="SVGID_00000134235660134205049170000002866235084528403844_">
		<use xlink:href="#SVGID_00000098929590960721082130000006413111460616555960_"  style="overflow:visible;"/>
	</clipPath>
	<g style="clip-path:url(#SVGID_00000134235660134205049170000002866235084528403844_);">
		<polygon points="329,209.7 327.9,212.7 329,209.7 		"/>
	</g>
</g>
<g>
	<defs>
		<rect id="SVGID_00000077282464865498065020000017874161260924556682_" x="99.4" y="202.4" width="737.5" height="265.5"/>
	</defs>
	<clipPath id="SVGID_00000010304633663155739760000010696655415411445181_">
		<use xlink:href="#SVGID_00000077282464865498065020000017874161260924556682_"  style="overflow:visible;"/>
	</clipPath>
	<g style="clip-path:url(#SVGID_00000010304633663155739760000010696655415411445181_);">
		<polygon points="391,209.7 390,209.7 485.6,462.3 486.6,462.3 		"/>
	</g>
</g>
<g>
	<defs>
		<rect id="SVGID_00000029761324290107118790000018255062529160561539_" x="99.4" y="202.4" width="737.5" height="265.5"/>
	</defs>
	<clipPath id="SVGID_00000066499884545580350320000006776672813070097072_">
		<use xlink:href="#SVGID_00000029761324290107118790000018255062529160561539_"  style="overflow:visible;"/>
	</clipPath>
	<g style="clip-path:url(#SVGID_00000066499884545580350320000006776672813070097072_);">
		<polygon points="389.7,209.7 485.4,462.3 485.6,462.3 390,209.7 		"/>
	</g>
</g>
<g>
	<defs>
		<rect id="SVGID_00000075868983239113293660000017899068402981864842_" x="99.4" y="202.4" width="737.5" height="265.5"/>
	</defs>
	<clipPath id="SVGID_00000085239339208527930410000016751441033029592761_">
		<use xlink:href="#SVGID_00000075868983239113293660000017899068402981864842_"  style="overflow:visible;"/>
	</clipPath>
	<g style="clip-path:url(#SVGID_00000085239339208527930410000016751441033029592761_);">
		<polygon points="389.7,209.7 485.4,462.3 485.6,462.3 390,209.7 		"/>
	</g>
</g>
<g>
	<defs>
		<rect id="SVGID_00000010300842143564710040000013143051322672148369_" x="99.4" y="202.4" width="737.5" height="265.5"/>
	</defs>
	<clipPath id="SVGID_00000157990683916185260270000009071306768115042739_">
		<use xlink:href="#SVGID_00000010300842143564710040000013143051322672148369_"  style="overflow:visible;"/>
	</clipPath>
	<g style="clip-path:url(#SVGID_00000157990683916185260270000009071306768115042739_);">
		<polygon points="524.9,391.3 557,298.1 587.4,209.7 465,209.7 475.3,241 		"/>
	</g>
</g>
</svg>
